<svg xmlns="http://www.w3.org/2000/svg" xmlns:xlink="http://www.w3.org/1999/xlink" width="117.5" height="122.567" viewBox="0 0 117.5 122.567"><defs><style>.a{fill:url(#a);}.b{fill:url(#b);}.c{fill:none;}.d{clip-path:url(#d);}.e{fill:#fff;}.e,.g{opacity:0.7;mix-blend-mode:soft-light;}.ac,.aj,.at,.az,.e,.g,.j,.m,.r,.y{isolation:isolate;}.f{clip-path:url(#f);}.h{fill:#fcfdfe;}.i{fill:url(#g);}.j,.s{fill:#97a6b7;}.ac,.aj,.at,.az,.j,.r{opacity:0.3;}.ac,.aj,.at,.az,.j,.m,.r,.y{mix-blend-mode:multiply;}.k{fill:url(#h);}.l{fill:url(#i);}.m{opacity:0.25;fill:url(#j);}.n{fill:url(#k);}.o{fill:url(#l);}.p{clip-path:url(#m);}.q{fill:url(#n);}.r{fill:url(#o);}.t{fill:url(#p);}.u{fill:#d8dee8;}.v{fill:url(#q);}.w{fill:url(#r);}.x{fill:url(#s);}.y{opacity:0.1;}.z{fill:url(#t);}.aa{clip-path:url(#u);}.ab{fill:url(#v);}.ac{fill:url(#w);}.ad{fill:url(#x);}.ae{fill:url(#aa);}.af{fill:url(#ab);}.ag{fill:url(#ad);}.ah{fill:url(#ae);}.ai{fill:url(#af);}.ak{fill:url(#ag);}.al{fill:url(#ah);}.am{fill:url(#ai);}.an{fill:url(#aj);}.ao{fill:url(#ak);}.ap{fill:url(#al);}.aq{fill:url(#am);}.ar{fill:url(#an);}.as{fill:url(#ao);}.at{fill:url(#ap);}.au{fill:url(#aq);}.av{fill:url(#ar);}.aw{fill:url(#as);}.ax{fill:url(#at);}.ay{fill:url(#au);}.az{fill:url(#av);}</style><linearGradient id="a" x1="0.571" y1="0.43" x2="1.097" y2="-0.129" gradientUnits="objectBoundingBox"><stop offset="0.004" stop-color="#e38ddd"/><stop offset="1" stop-color="#9571f6"/></linearGradient><linearGradient id="b" x1="0.472" y1="0.187" x2="0.563" y2="0.68" gradientUnits="objectBoundingBox"><stop offset="0.004" stop-color="#6165d7"/><stop offset="1" stop-color="#aa80f9"/></linearGradient><clipPath id="d"><path class="a" d="M5379.865,264.256c-4.256-3.005-5.017-10.878-3.975-16.161,1.217-6.169,4.4-6.332,4.976-11.2,1.066-9.069-9.541-12.222-9.191-21.453.287-7.546,7.484-8.3,7.421-16.674-.045-6.041-3.815-8.55-2.122-13.821.145-.451,1.776-5.288,5.906-6.418,4.17-1.141,8.448,2.161,10.564,4.821,3.911,4.917,1.016,8.373,3.513,15.9,3.4,10.252,10.778,9.915,11.721,17.981.779,6.661-4.073,8.427-3.062,15.795.938,6.842,5.462,7.805,5.652,12.469C5411.705,256.222,5388.546,270.386,5379.865,264.256Z" transform="translate(-5371.667 -178.293)"/></clipPath><clipPath id="f"><path class="b" d="M4678.017,231.134a9,9,0,0,1-3.8,1.889c-4.8.185-13.778,1.116-17.709-2.106-.671-.55.951-4.158.626-5.064.477-2.551.8-3.406.063-6.054-2.18-7.817-18.6-5.508-14.127-18.811,3.274-9.745,10.876-14.467-2.071-22.557s-28.317-34.163-10.274-40.941c10.355-3.89,15.336,11.3,25.856,13.066,10,1.678,13.787,9.182,12.533,20.187s5.161,9.295,13.79,12.092c10.364,3.361,2.489,17.341-1.7,23.486C4677.834,211.269,4672.588,226.142,4678.017,231.134Z" transform="translate(-4622.489 -136.856)"/></clipPath><linearGradient id="g" x1="-1.164" y1="1.072" x2="-0.391" y2="1.072" gradientUnits="objectBoundingBox"><stop offset="0" stop-color="#311944"/><stop offset="1" stop-color="#893976"/></linearGradient><linearGradient id="h" x1="-3.35" y1="1.006" x2="-1.093" y2="1.451" xlink:href="#g"/><linearGradient id="i" x1="-0.823" y1="0.543" x2="-0.586" y2="2.12" gradientUnits="objectBoundingBox"><stop offset="0" stop-color="#ff9085"/><stop offset="1" stop-color="#fb6fbb"/></linearGradient><linearGradient id="j" x1="-0.914" y1="-0.32" x2="-0.673" y2="4.321" xlink:href="#i"/><linearGradient id="k" x1="-16.423" y1="0.763" x2="-17.534" y2="1.391" xlink:href="#a"/><linearGradient id="l" x1="-15.835" y1="1.105" x2="-16.873" y2="1.119" xlink:href="#g"/><clipPath id="m"><path class="c" d="M5989.04,393.6a7.1,7.1,0,0,0,4.042-3.128,18.172,18.172,0,0,0,2.528-6.681c1.117-5.747.689-12.912-1.2-20.174s-5.019-13.724-8.8-18.194a18.156,18.156,0,0,0-5.467-4.6,6.508,6.508,0,0,0-9.1,2.372,18.155,18.155,0,0,0-2.527,6.681c-1.118,5.747-.691,12.912,1.2,20.174s5.018,13.724,8.8,18.194a18.173,18.173,0,0,0,5.467,4.6A7.1,7.1,0,0,0,5989.04,393.6Z" transform="translate(-5967.906 -339.881)"/></clipPath><linearGradient id="n" x1="-3.416" y1="0.624" x2="-2.949" y2="2.785" gradientUnits="objectBoundingBox"><stop offset="0" stop-color="#ffc444"/><stop offset="0.996" stop-color="#f36f56"/></linearGradient><linearGradient id="o" x1="-6.943" y1="1.114" x2="-6.276" y2="3.287" xlink:href="#n"/><linearGradient id="p" x1="0.229" y1="1.762" x2="0.67" y2="-0.345" gradientUnits="objectBoundingBox"><stop offset="0.004" stop-color="#ebeff2"/><stop offset="1" stop-color="#fff"/></linearGradient><linearGradient id="q" x1="0.536" y1="0.526" x2="1.339" y2="2.689" xlink:href="#n"/><linearGradient id="r" x1="0.411" y1="0.207" x2="1.275" y2="2.451" xlink:href="#n"/><linearGradient id="s" x1="0.274" y1="-0.12" x2="1.201" y2="2.205" xlink:href="#n"/><linearGradient id="t" x1="0" y1="0.5" x2="1" y2="0.5" xlink:href="#n"/><clipPath id="u"><rect class="c" width="59.498" height="60.203" transform="translate(0 15.009) rotate(-14.611)"/></clipPath><linearGradient id="v" x1="-1.908" y1="0.804" x2="-2.436" y2="1.344" xlink:href="#n"/><linearGradient id="w" x1="-2.166" y1="1.071" x2="-2.745" y2="1.836" xlink:href="#n"/><linearGradient id="x" x1="-2.681" y1="1.253" x2="3.375" y2="1.646" xlink:href="#n"/><linearGradient id="aa" x1="-1.259" y1="1.078" x2="-0.259" y2="1.078" xlink:href="#g"/><linearGradient id="ab" x1="-3.409" y1="0.987" x2="-0.133" y2="1.141" xlink:href="#g"/><linearGradient id="ad" x1="-1.278" y1="1.701" x2="-0.296" y2="1.701" xlink:href="#g"/><linearGradient id="ae" x1="0" y1="0.5" x2="1" y2="0.5" xlink:href="#g"/><linearGradient id="af" x1="0.797" y1="-0.039" x2="-0.191" y2="1.795" xlink:href="#n"/><linearGradient id="ag" x1="0.98" y1="-0.127" x2="-0.236" y2="1.862" xlink:href="#n"/><linearGradient id="ah" x1="-174.465" y1="21.176" x2="-173.729" y2="21.176" xlink:href="#g"/><linearGradient id="ai" x1="1.131" y1="-0.077" x2="0.499" y2="0.589" xlink:href="#b"/><linearGradient id="aj" x1="-259.596" y1="0.5" x2="-258.596" y2="0.5" xlink:href="#g"/><linearGradient id="ak" x1="23.206" y1="-2.41" x2="23.386" y2="2.649" gradientUnits="objectBoundingBox"><stop offset="0" stop-color="#311944"/><stop offset="1" stop-color="#a03976"/></linearGradient><linearGradient id="al" x1="85.489" y1="1.152" x2="85.367" y2="-5.07" xlink:href="#n"/><linearGradient id="am" x1="36.42" y1="-1.485" x2="36.704" y2="1.472" xlink:href="#ak"/><linearGradient id="an" x1="60.84" y1="1.353" x2="60.754" y2="-3.032" xlink:href="#n"/><linearGradient id="ao" x1="13.014" y1="0.5" x2="14.014" y2="0.5" gradientUnits="objectBoundingBox"><stop offset="0" stop-color="#444b8c"/><stop offset="0.996" stop-color="#3e4177"/></linearGradient><linearGradient id="ap" x1="13.907" y1="0.5" x2="14.981" y2="0.5" xlink:href="#ao"/><linearGradient id="aq" x1="6.465" y1="0.5" x2="7.465" y2="0.5" xlink:href="#ao"/><linearGradient id="ar" x1="-86.222" y1="0.362" x2="-86.087" y2="1.902" xlink:href="#g"/><linearGradient id="as" x1="-177.581" y1="0.812" x2="-177.705" y2="-0.259" gradientUnits="objectBoundingBox"><stop offset="0.004" stop-color="#26264f"/><stop offset="1" stop-color="#444b8c"/></linearGradient><linearGradient id="at" x1="-220.057" y1="-0.675" x2="-218.651" y2="0.911" xlink:href="#g"/><linearGradient id="au" x1="-16.136" y1="1.264" x2="-16.234" y2="0.186" xlink:href="#b"/><linearGradient id="av" x1="-35.911" y1="1.439" x2="-36.121" y2="-0.14" gradientUnits="objectBoundingBox"><stop offset="0" stop-color="#aa80f9"/><stop offset="0.996" stop-color="#6165d7"/></linearGradient></defs><g transform="translate(-4581.566 -136.856)"><g transform="translate(4614.819 138.6)"><g transform="translate(0 0)"><path class="a" d="M5379.865,264.256c-4.256-3.005-5.017-10.878-3.975-16.161,1.217-6.169,4.4-6.332,4.976-11.2,1.066-9.069-9.541-12.222-9.191-21.453.287-7.546,7.484-8.3,7.421-16.674-.045-6.041-3.815-8.55-2.122-13.821.145-.451,1.776-5.288,5.906-6.418,4.17-1.141,8.448,2.161,10.564,4.821,3.911,4.917,1.016,8.373,3.513,15.9,3.4,10.252,10.778,9.915,11.721,17.981.779,6.661-4.073,8.427-3.062,15.795.938,6.842,5.462,7.805,5.652,12.469C5411.705,256.222,5388.546,270.386,5379.865,264.256Z" transform="translate(-5371.667 -178.293)"/><g class="d"><g transform="translate(4.307 -6.731)"><path class="e" d="M5657.871,212.682a.082.082,0,0,1-.042-.152,30.719,30.719,0,0,0,9.821-9.085c2.417-3.5,4.915-7.127,4.715-11.622-.151-3.4-1.747-5.23-3.766-7.549a27.326,27.326,0,0,1-6.13-10.282c-.979-2.977-2.2-6.682-1.254-11.139a13.444,13.444,0,0,1,2.455-5.352c.935-1.352,1.673-2.42,1.528-4.316-.239-3.094-1.908-5.09-3.841-7.4a31.459,31.459,0,0,1-3.517-4.83c-3.06-5.419-3.146-12.7-.256-21.636a.082.082,0,1,1,.155.05c-2.875,8.892-2.792,16.127.244,21.505a31.28,31.28,0,0,0,3.5,4.805c1.951,2.333,3.637,4.348,3.879,7.494a6.248,6.248,0,0,1-1.556,4.422,13.3,13.3,0,0,0-2.43,5.293c-.935,4.413.276,8.095,1.25,11.053a27.185,27.185,0,0,0,6.1,10.226c2.041,2.343,3.653,4.193,3.806,7.649.2,4.549-2.312,8.2-4.743,11.721a30.887,30.887,0,0,1-9.875,9.135A.079.079,0,0,1,5657.871,212.682Z" transform="translate(-5647.842 -115.014)"/><path class="e" d="M5487.165,704.87a.081.081,0,0,1-.054-.021c-6.811-6.086-10.009-11.737-11.494-15.407a19.261,19.261,0,0,1-1.607-6.587.078.078,0,0,1,.083-.081.081.081,0,0,1,.081.083,19.132,19.132,0,0,0,1.6,6.535c1.478,3.651,4.663,9.275,11.446,15.335a.082.082,0,0,1,.006.116A.08.08,0,0,1,5487.165,704.87Z" transform="translate(-5474.01 -654.811)"/><path class="e" d="M5862.09,833.876a.082.082,0,0,1-.052-.145,31.47,31.47,0,0,0,8.478-10.328,25.672,25.672,0,0,0,2.613-9.619,24.5,24.5,0,0,0-1.245-9.876.082.082,0,0,1,.152-.061,24.674,24.674,0,0,1,1.257,9.941,25.825,25.825,0,0,1-2.628,9.683,31.636,31.636,0,0,1-8.523,10.387A.082.082,0,0,1,5862.09,833.876Z" transform="translate(-5845.679 -770.739)"/><path class="e" d="M5526.521,1567.456a.085.085,0,0,1-.023,0c-10.048-2.948-15.292-8.311-17.922-12.291a20.94,20.94,0,0,1-3.335-8.022.081.081,0,1,1,.162-.02,20.807,20.807,0,0,0,3.315,7.96c2.615,3.954,7.83,9.284,17.827,12.216a.082.082,0,0,1-.023.16Z" transform="translate(-5503.926 -1482.71)"/><path class="e" d="M5703.481,43.329a.082.082,0,0,1-.06-.137,21.189,21.189,0,0,0,5.923-16.8,21.912,21.912,0,0,0-2.281-7.9.081.081,0,0,1,.031-.112.082.082,0,0,1,.112.031,22.132,22.132,0,0,1,2.3,7.968,21.349,21.349,0,0,1-5.966,16.929A.082.082,0,0,1,5703.481,43.329Z" transform="translate(-5693.746 -18.365)"/></g></g></g></g><g transform="translate(4583.289 136.856)"><path class="b" d="M4678.017,231.134a9,9,0,0,1-3.8,1.889c-4.8.185-13.778,1.116-17.709-2.106-.671-.55.951-4.158.626-5.064.477-2.551.8-3.406.063-6.054-2.18-7.817-18.6-5.508-14.127-18.811,3.274-9.745,10.876-14.467-2.071-22.557s-28.317-34.163-10.274-40.941c10.355-3.89,15.336,11.3,25.856,13.066,10,1.678,13.787,9.182,12.533,20.187s5.161,9.295,13.79,12.092c10.364,3.361,2.489,17.341-1.7,23.486C4677.834,211.269,4672.588,226.142,4678.017,231.134Z" transform="translate(-4622.489 -136.856)"/><g class="f"><g class="g" transform="translate(-4.08 1.206)"><path class="h" d="M4710.639,259.568l-.229-.04c6.2-35.215-9.169-70.291-41.107-93.829l.138-.187c15.137,11.155,26.986,25.461,34.268,41.37A89.029,89.029,0,0,1,4710.639,259.568Z" transform="translate(-4663.253 -165.512)"/><path class="h" d="M5692.615,1246.529c-7.925,5.731-17.12,18.262-20.5,27.935l-.219-.077c3.39-9.71,12.623-22.292,20.58-28.046Z" transform="translate(-5623.652 -1200.853)"/><path class="h" d="M5083.3,1725.88l-.231.025c-.566-5.3-3.788-10.1-9.575-14.282a60.608,60.608,0,0,0-16.344-7.924l.073-.22a60.82,60.82,0,0,1,16.406,7.956C5079.475,1715.656,5082.729,1720.516,5083.3,1725.88Z" transform="translate(-5034.779 -1638.751)"/><path class="h" d="M5447.641,511.524l-.229.036c-1.581-9.926,2.985-19.458,7.094-25.707l.194.128C5450.613,492.2,5446.071,501.672,5447.641,511.524Z" transform="translate(-5408.306 -472.372)"/><path class="h" d="M4552.537,459.224l-.149.178c-8.66-7.295-20.532-7.88-26.836-7.579l-.012-.232C4531.878,451.289,4543.816,451.878,4552.537,459.224Z" transform="translate(-4525.539 -439.493)"/></g></g></g><g transform="translate(4583.957 141.185)"><path class="i" d="M4884.1,1253.266a5.907,5.907,0,0,1-5.778-2.2l-19.313-25.431a5.153,5.153,0,0,1,1.023-7.294c2.344-1.732,6.748-1.56,8.542.776l19.7,25.66a5.039,5.039,0,0,1-1.151,7.378A12.267,12.267,0,0,1,4884.1,1253.266Z" transform="translate(-4848.698 -1176.046)"/><path class="j" d="M4860.033,1218.343c2.344-1.732,6.748-1.56,8.542.776l18.013,23.462c-1.99.007-4.185.625-6.788-.68-4.333-2.173-3.631-6.589-7.347-9.39-1.7-1.281-4.506-2.363-9.452-1.62l-3.991-5.255A5.153,5.153,0,0,1,4860.033,1218.343Z" transform="translate(-4848.698 -1176.046)"/><path class="k" d="M4641.064,1107.776a2.3,2.3,0,0,1,.31-.058l7.32-1.994,4.977,19.089-7.114,1.751a2.339,2.339,0,0,1-.538.216c-2.516.656-5.665-3.066-7.033-8.314S4638.548,1108.432,4641.064,1107.776Z" transform="translate(-4638.354 -1069.277)"/><path class="l" d="M4876.266,393.021a23.645,23.645,0,0,0,4.977,19.089l59.188,3.322-13.4-53.724Z" transform="translate(-4865.926 -356.574)"/><path class="m" d="M4929.06,1205.788c-5.706-.614-9.282-7.726-15.377-6.408-4.782,1.034-5.009,6-9.773,6.711-4.876.73-7.006-4.178-12.789-4.6a12.755,12.755,0,0,0-7.39,1.953,24.082,24.082,0,0,0,4.989,10.923l59.188,3.322-7.973-17.349C4935.369,1204.889,4931.826,1206.085,4929.06,1205.788Z" transform="translate(-4873.403 -1158.835)"/><ellipse class="n" cx="13.728" cy="28.631" rx="13.728" ry="28.631" transform="translate(49.607 6.926) rotate(-14.611)"/><path class="o" d="M5989.04,393.6a7.1,7.1,0,0,0,4.042-3.128,18.172,18.172,0,0,0,2.528-6.681c1.117-5.747.689-12.912-1.2-20.174s-5.019-13.724-8.8-18.194a18.156,18.156,0,0,0-5.467-4.6,6.508,6.508,0,0,0-9.1,2.372,18.155,18.155,0,0,0-2.527,6.681,36.788,36.788,0,0,0-.6,7.856c.093,3.9,3.592,7.084,4.693,11.31,1.171,4.493-.08,9.689,1.9,13.287a36.126,36.126,0,0,0,4.007,5.915,18.173,18.173,0,0,0,5.467,4.6A7.1,7.1,0,0,0,5989.04,393.6Z" transform="translate(-5911.95 -335.665)"/><g transform="translate(55.956 4.216)"><g class="p"><path class="q" d="M5857.563,749.4c1.83,7.019-1.366,13.8-7.055,15.135-5.6,1.311-11.521-3.173-13.3-10s1.216-13.558,6.768-15.063C5849.613,737.948,5855.732,742.382,5857.563,749.4Z" transform="translate(-5842.217 -722.37)"/><path class="r" d="M6071.85,799.326c1.359,5.212.173,9.941-2.608,10.553-2.739.6-6-3.023-7.319-8.09s-.233-9.772,2.468-10.519C6067.134,790.513,6070.491,794.114,6071.85,799.326Z" transform="translate(-6057.428 -772.177)"/></g></g></g><g transform="translate(4581.566 205.569)"><path class="s" d="M4690.938,1772.22l-99.951-2.7a9.213,9.213,0,0,0-9.419,9.311v20.023a9.108,9.108,0,0,0,9.419,9.221l99.951-3.651c3.551-.13,6.392-3.712,6.392-8v-16.264C4697.329,1775.871,4694.488,1772.316,4690.938,1772.22Z" transform="translate(-4581.567 -1769.52)"/><path class="t" d="M4619.955,1835.429a7.9,7.9,0,0,1-8.147-7.992v-19.982a7.994,7.994,0,0,1,8.147-8.07l99.951,2.49c3.075.077,5.549,3.164,5.549,6.883v16.291c0,3.719-2.474,6.83-5.549,6.936Z" transform="translate(-4610.535 -1798.126)"/><g transform="translate(10.566 8.755)"><path class="u" d="M4844.018,1977.954l2.716,5.739a.693.693,0,0,0,.518.393l5.973.916a.719.719,0,0,1,.373,1.208l-4.3,4.43a.738.738,0,0,0-.2.633l1.023,6.225a.7.7,0,0,1-.988.773l-5.413-2.856a.674.674,0,0,0-.647.011l-5.525,3.1a.7.7,0,0,1-1.03-.745l1.066-6.391a.735.735,0,0,0-.2-.642l-4.548-4.5a.737.737,0,0,1,.4-1.25l6.259-.925a.7.7,0,0,0,.53-.4l2.752-5.738A.685.685,0,0,1,4844.018,1977.954Z" transform="translate(-4832.612 -1977.545)"/><path class="v" d="M5385.959,1984.654l2.519,5.526a.645.645,0,0,0,.48.378l5.543.882a.7.7,0,0,1,.346,1.164l-4,4.267a.731.731,0,0,0-.182.61l.949,6a.658.658,0,0,1-.917.744l-5.021-2.755a.6.6,0,0,0-.6.01l-5.121,2.983a.655.655,0,0,1-.955-.718l.988-6.151a.722.722,0,0,0-.189-.618l-4.212-4.336a.716.716,0,0,1,.37-1.2l5.8-.89a.657.657,0,0,0,.491-.381l2.551-5.525A.626.626,0,0,1,5385.959,1984.654Z" transform="translate(-5352.546 -1983.977)"/><path class="w" d="M5888.553,1986.51l2.343,5.329a.6.6,0,0,0,.446.365l5.159.851a.685.685,0,0,1,.322,1.123l-3.719,4.116a.72.72,0,0,0-.169.588l.883,5.786a.618.618,0,0,1-.853.716l-4.67-2.66a.545.545,0,0,0-.558.01l-4.76,2.872a.614.614,0,0,1-.887-.693l.918-5.929a.713.713,0,0,0-.175-.6l-3.913-4.18a.7.7,0,0,1,.343-1.159l5.387-.858a.613.613,0,0,0,.457-.367l2.372-5.328A.574.574,0,0,1,5888.553,1986.51Z" transform="translate(-5834.703 -1985.769)"/><path class="x" d="M6355.935,1992.3l2.185,5.145a.567.567,0,0,0,.417.352l4.813.822a.67.67,0,0,1,.3,1.085l-3.47,3.975a.715.715,0,0,0-.158.568l.824,5.589c.077.521-.393.929-.8.692l-4.354-2.572a.493.493,0,0,0-.52.009l-4.436,2.77c-.417.261-.906-.135-.826-.67l.855-5.722a.708.708,0,0,0-.163-.575l-3.646-4.034a.683.683,0,0,1,.32-1.119l5.018-.828a.576.576,0,0,0,.425-.355l2.21-5.144A.529.529,0,0,1,6355.935,1992.3Z" transform="translate(-6283.058 -1991.33)"/><path class="u" d="M6791.682,1997.707l2.041,4.974a.539.539,0,0,0,.389.341l4.5.794a.656.656,0,0,1,.281,1.049l-3.244,3.844a.7.7,0,0,0-.148.549l.77,5.4c.072.5-.368.9-.744.668l-4.07-2.489a.448.448,0,0,0-.486.008l-4.143,2.674c-.39.252-.847-.131-.772-.647l.8-5.529a.7.7,0,0,0-.153-.556l-3.4-3.9a.668.668,0,0,1,.3-1.081l4.686-.8a.542.542,0,0,0,.4-.342l2.065-4.972A.489.489,0,0,1,6791.682,1997.707Z" transform="translate(-6701.045 -1996.519)"/></g><g class="y" transform="translate(0)"><path class="s" d="M4676.218,1789.9c-12.9-3.512-21.571,14.079-36.572,10.215-13.008-3.35-13.371-17.855-28.832-28.18q-1.589-1.061-3.235-1.968l-16.593-.448a9.213,9.213,0,0,0-9.419,9.311v20.023a9.108,9.108,0,0,0,9.419,9.221l99.272-3.626C4685.487,1794.576,4680.438,1791.053,4676.218,1789.9Z" transform="translate(-4581.567 -1769.52)"/></g><path class="z" d="M4844.018,1977.954l2.716,5.739a.693.693,0,0,0,.518.393l5.973.916a.719.719,0,0,1,.373,1.208l-4.3,4.43a.738.738,0,0,0-.2.633l1.023,6.225a.7.7,0,0,1-.988.773l-5.413-2.856a.674.674,0,0,0-.647.011l-5.525,3.1a.7.7,0,0,1-1.03-.745l1.066-6.391a.735.735,0,0,0-.2-.642l-4.548-4.5a.737.737,0,0,1,.4-1.25l6.259-.925a.7.7,0,0,0,.53-.4l2.752-5.738A.685.685,0,0,1,4844.018,1977.954Z" transform="translate(-4822.046 -1968.79)"/></g><g transform="translate(4609.289 138.664)"><g class="aa" transform="translate(0 0)"><g transform="translate(-25.332 2.521)"><path class="ab" d="M4884.1,1253.266a5.907,5.907,0,0,1-5.778-2.2l-19.313-25.431a5.153,5.153,0,0,1,1.023-7.294c2.344-1.732,6.748-1.56,8.542.776l19.7,25.66a5.039,5.039,0,0,1-1.151,7.378A12.267,12.267,0,0,1,4884.1,1253.266Z" transform="translate(-4848.698 -1176.046)"/><path class="ac" d="M4860.033,1218.343c2.344-1.732,6.748-1.56,8.542.776l18.013,23.462c-1.99.007-4.185.625-6.788-.68-4.333-2.173-3.631-6.589-7.347-9.39-1.7-1.281-4.506-2.363-9.452-1.62l-3.991-5.255A5.153,5.153,0,0,1,4860.033,1218.343Z" transform="translate(-4848.698 -1176.046)"/><path class="ad" d="M4641.064,1107.776a2.3,2.3,0,0,1,.31-.058l7.32-1.994,4.977,19.089-7.114,1.751a2.339,2.339,0,0,1-.538.216c-2.516.656-5.665-3.066-7.033-8.314S4638.548,1108.432,4641.064,1107.776Z" transform="translate(-4638.354 -1069.277)"/><path class="l" d="M4876.266,393.021a23.645,23.645,0,0,0,4.977,19.089l59.188,3.322-13.4-53.724Z" transform="translate(-4865.926 -356.574)"/><path class="m" d="M4929.06,1205.788c-5.706-.614-9.282-7.726-15.377-6.408-4.782,1.034-5.009,6-9.773,6.711-4.876.73-7.006-4.178-12.789-4.6a12.755,12.755,0,0,0-7.39,1.953,24.082,24.082,0,0,0,4.989,10.923l59.188,3.322-7.973-17.349C4935.369,1204.889,4931.826,1206.085,4929.06,1205.788Z" transform="translate(-4873.403 -1158.835)"/><ellipse class="ae" cx="13.728" cy="28.631" rx="13.728" ry="28.631" transform="translate(49.607 6.926) rotate(-14.611)"/><path class="af" d="M5989.04,393.6a7.1,7.1,0,0,0,4.042-3.128,18.172,18.172,0,0,0,2.528-6.681c1.117-5.747.689-12.912-1.2-20.174s-5.019-13.724-8.8-18.194a18.156,18.156,0,0,0-5.467-4.6,6.508,6.508,0,0,0-9.1,2.372,18.155,18.155,0,0,0-2.527,6.681,36.788,36.788,0,0,0-.6,7.856c.093,3.9,3.592,7.084,4.693,11.31,1.171,4.493-.08,9.689,1.9,13.287a36.126,36.126,0,0,0,4.007,5.915,18.173,18.173,0,0,0,5.467,4.6A7.1,7.1,0,0,0,5989.04,393.6Z" transform="translate(-5911.95 -335.665)"/><g transform="translate(55.956 4.216)"><g class="p"><path class="ag" d="M5857.563,749.4c1.83,7.019-1.366,13.8-7.055,15.135-5.6,1.311-11.521-3.173-13.3-10s1.216-13.558,6.768-15.063C5849.613,737.948,5855.732,742.382,5857.563,749.4Z" transform="translate(-5842.217 -722.37)"/><path class="j" d="M6071.85,799.326c1.359,5.212.173,9.941-2.608,10.553-2.739.6-6-3.023-7.319-8.09s-.233-9.772,2.468-10.519C6067.134,790.513,6070.491,794.114,6071.85,799.326Z" transform="translate(-6057.428 -772.177)"/></g></g></g></g></g><g transform="translate(4649.529 153.254)"><g transform="translate(0)"><path class="ah" d="M6219.338,527.291l5.588,11.323a1.423,1.423,0,0,0,1.07.778l12.5,1.816a1.421,1.421,0,0,1,.787,2.424l-9.041,8.814a1.421,1.421,0,0,0-.41,1.258l2.135,12.445a1.422,1.422,0,0,1-2.062,1.5l-11.176-5.876a1.421,1.421,0,0,0-1.323,0l-11.177,5.876a1.422,1.422,0,0,1-2.062-1.5L6206.3,553.7a1.421,1.421,0,0,0-.409-1.258l-9.042-8.814a1.422,1.422,0,0,1,.788-2.424l12.5-1.816a1.42,1.42,0,0,0,1.07-.778l5.588-11.323A1.422,1.422,0,0,1,6219.338,527.291Z" transform="translate(-6196.416 -526.499)"/><path class="ai" d="M6232.524,527.291l5.588,11.323a1.421,1.421,0,0,0,1.07.778l12.5,1.816a1.421,1.421,0,0,1,.789,2.424l-9.042,8.814a1.42,1.42,0,0,0-.409,1.258l2.134,12.445a1.421,1.421,0,0,1-2.062,1.5l-11.177-5.876a1.422,1.422,0,0,0-1.323,0l-11.177,5.876a1.421,1.421,0,0,1-2.062-1.5l2.134-12.445a1.42,1.42,0,0,0-.409-1.258l-9.042-8.814a1.421,1.421,0,0,1,.788-2.424l12.5-1.816a1.421,1.421,0,0,0,1.07-.778l5.588-11.323A1.421,1.421,0,0,1,6232.524,527.291Z" transform="translate(-6209.047 -526.499)"/><g class="aj" transform="translate(0.555 3.202)"><path class="ak" d="M6240.053,631.912c-4.289-4.078-9.12-3.851-11.071-8.564-2.185-5.281,2.469-8.978,1.671-15.457a13.563,13.563,0,0,0-1.867-5.31l-4.4,8.914a1.421,1.421,0,0,1-1.07.778l-12.5,1.816a1.421,1.421,0,0,0-.788,2.424l9.042,8.814a1.42,1.42,0,0,1,.409,1.258l-2.134,12.445a1.421,1.421,0,0,0,2.062,1.5l11.177-5.876a1.422,1.422,0,0,1,1.323,0l11.177,5.876a1.412,1.412,0,0,0,1.684-.271A17.459,17.459,0,0,0,6240.053,631.912Z" transform="translate(-6209.602 -602.581)"/></g></g><g transform="translate(8.001 37.01)"><path class="al" d="M7030.57,1424.027s.117-.535-.913-.736c-.808-.157-1.029-.346-.828-.476s.651.008.651.008a3.841,3.841,0,0,0-.95-1.4c-.634-.541.048-.486.437-.409a3.542,3.542,0,0,1,1.48,1.271,4.892,4.892,0,0,0,.919,1.042Z" transform="translate(-7001.264 -1420.326)"/><path class="am" d="M6975.051,1465.109l-.96,1.041s6.458,4.325-4.368,5.293l9.889,10.049S6987.534,1472.211,6975.051,1465.109Z" transform="translate(-6945.179 -1462.616)"/><path class="an" d="M6388.814,1409.052s-.543-.076-.374-1.112c.133-.812.032-1.085-.159-.941s-.219.613-.219.613a3.841,3.841,0,0,1-.987-1.378c-.288-.781-.473-.123-.535.267a3.558,3.558,0,0,0,.679,1.83,4.878,4.878,0,0,1,.658,1.223Z" transform="translate(-6386.535 -1405.869)"/><path class="ao" d="M6869.867,2982.562a27.646,27.646,0,0,0-3.653,1.895c-.059.261,2.312-.088,3.279-.05s1.764-.248,1.676-.658-.426-1.441-.426-1.441Z" transform="translate(-6846.025 -2915.961)"/><path class="ap" d="M6949.926,2952.44l.219,1.619a1.267,1.267,0,0,0,.951-.037l.164-1.775Z" transform="translate(-6926.215 -2887.166)"/><path class="aq" d="M7293.1,2957.769l.418.671a.8.8,0,0,1,.1.628c-.146.558-.438,1.646-.566,1.929-.173.386-2.5.616-2.5.616s-.208-.292.275-.645.793-.408.964-.928a13.617,13.617,0,0,0,.284-1.992Z" transform="translate(-7252.459 -2892.455)"/><path class="ar" d="M7310.827,2912.849a21.751,21.751,0,0,1,.9,2.39s.242.309.7-.147.208-.2.208-.2l-.085-2.23Z" transform="translate(-7271.927 -2849.24)"/><path class="as" d="M6899.83,2133.018c-.189,4.828-.2,10.073.081,15.677.313,6.31.941,12.143,1.733,17.43.294.009.6.011.928,0,.218-.006.429-.017.633-.031a40.092,40.092,0,0,0,1.333-4.26,41.078,41.078,0,0,0,.93-4.988c.693-5.469-.119-5.946.443-10,.5-3.589,1.205-3.729,2.036-8.825.9-5.529.23-6.359-.1-6.658C6906.46,2130.09,6903.2,2130.959,6899.83,2133.018Z" transform="translate(-6878.097 -2100.26)"/><path class="at" d="M6921.547,2131.383c-1.326-1.217-4.355-.48-7.555,1.377,3.681,3.977,4.083,6.557,3.641,8.231-.5,1.892-2.014,2.437-2.009,4.506.008,2.542,2.3,3.216,2.253,5.906-.033,1.779-1.041,1.76-1.279,3.958-.282,2.6,1.035,3.5.609,5.419a5.206,5.206,0,0,1-2.2,3.022c.107.79.218,1.572.333,2.339.295.009.6.011.928,0q.327-.009.633-.031a40.092,40.092,0,0,0,1.333-4.26,41.193,41.193,0,0,0,.93-4.988c.692-5.469-.12-5.946.443-10,.5-3.589,1.2-3.73,2.035-8.825C6922.544,2132.512,6921.873,2131.682,6921.547,2131.383Z" transform="translate(-6891.794 -2100.277)"/><path class="au" d="M6957.107,2121.305a108.433,108.433,0,0,1,14.862,31.81,1.942,1.942,0,0,0,1.061.165,1.974,1.974,0,0,0,1.2-.649,31.193,31.193,0,0,0,.276-7.7,26.567,26.567,0,0,0-1.083-5.786c-.875-2.823-1.477-2.981-2.618-5.967-1.186-3.1-.9-3.873-2.033-7.752a51.165,51.165,0,0,0-2.535-6.8Z" transform="translate(-6933.093 -2088.629)"/><path class="av" d="M6841.7,1559.151a8.316,8.316,0,0,0,.558,2.363c.41.909,2.434,1.425,2.847,1.618s-.737.83-1.907.984-4.53-.008-5.147-.435.473-.426,1.3-.76,1.262-1.987,1.09-2.726S6841.7,1559.151,6841.7,1559.151Z" transform="translate(-6818.872 -1552.7)"/><g transform="translate(20.608 2.77)"><path class="aw" d="M6880.686,1474.33c-.617-.818-.354-2.423.2-2.63.156-.059.263.024,1.831,1.308.778.637,1.156.966,1.178,1.4a1.319,1.319,0,0,1-.281.813,3.355,3.355,0,0,1-.557.493c-.28.217-.264.211-.348.273a4.58,4.58,0,0,1-1.2.609,3.1,3.1,0,0,0,.014-.554,2.755,2.755,0,0,0-.135-.706A3.189,3.189,0,0,0,6880.686,1474.33Z" transform="translate(-6880.155 -1471.687)"/><path class="ax" d="M6878.3,1530.847a1.732,1.732,0,0,1-1.694.2c-.833-.365-.263-2.324.429-2.532a1.146,1.146,0,0,1,.882.2c.157.112.189.207.45.385.24.165.326.163.381.259.07.121.068.354-.3.852a.493.493,0,0,1,.556.017.309.309,0,0,1,.073.152C6879.112,1530.644,6878.811,1530.851,6878.3,1530.847Z" transform="translate(-6876.189 -1526.103)"/></g><path class="ay" d="M6437.687,1503.3a7.047,7.047,0,0,1-4.114,1.316c-2.354.1-2.689-.922-5.018-.823s-2.951,1.166-4.607.74a5.007,5.007,0,0,1-2.656-2c-3.452-4.51-.567-9.472-4.006-15.851a10.233,10.233,0,0,0-1.893-2.715c-2.969-2.936-5.8-1.6-9.541-3.957-3.069-1.933-5.129-5.818-4.239-7.57.4-.794.753-.689,1.3-.753a12.969,12.969,0,0,0,5.759,4.526c2.461,1.041,4.357.543,8.123.6,2.3.032,6.252.088,9.385,1.209,7.834,2.8,10.734,12.342,11.592,15.161C6438.518,1495.645,6440.16,1501.059,6437.687,1503.3Z" transform="translate(-6400.778 -1468.918)"/><path class="az" d="M6882.733,1734.085c.854-1.1-3.554-4.137-2.962-7.678.5-2.981,4.032-3.279,4.936-6.032.391-1.189.316-2.922-1.345-5.5,3.644,3.952,5.266,9.271,5.869,11.258.75,2.465,2.392,7.879-.082,10.119a7.041,7.041,0,0,1-4.113,1.316c-2.354.1-2.689-.922-5.018-.823s-2.951,1.167-4.607.74a5.01,5.01,0,0,1-2.657-2c-.018-.024-.033-.048-.051-.071a7.1,7.1,0,0,1,3.339-1.877C6879.285,1732.812,6882.041,1734.977,6882.733,1734.085Z" transform="translate(-6852.242 -1701.87)"/></g></g></g></svg>